<?xml version="1.0" encoding="UTF-8" standalone="no"?>
<svg width="59px" height="66px" viewBox="0 0 59 66" version="1.1" xmlns="http://www.w3.org/2000/svg" xmlns:xlink="http://www.w3.org/1999/xlink">
    <!-- Generator: sketchtool 3.8.3 (29802) - http://www.bohemiancoding.com/sketch -->
    <title>141D9B96-52A1-410E-947A-E52492C2CC00</title>
    <desc>Created with sketchtool.</desc>
    <defs></defs>
    <g id="Echo-Rep-Admin" stroke="none" stroke-width="1" fill="none" fill-rule="evenodd">
        <g id="echorep-admin-home-empty---search" transform="translate(-863.000000, -511.000000)" stroke="#A9ADAF" stroke-width="2">
            <g id="right-panel" transform="translate(499.000000, 0.000000)">
                <g id="placeholder-content" transform="translate(150.000000, 512.000000)">
                    <g id="icon-/-book" transform="translate(214.000000, 0.000000)">
                        <rect id="Rectangle-path" x="3" y="0" width="46" height="64"></rect>
                        <rect id="Rectangle-path" x="18" y="13" width="19" height="12"></rect>
                        <path d="M1.11022302e-16,9 L6,9" id="Shape"></path>
                        <path d="M1.11022302e-16,19 L6,19" id="Shape"></path>
                        <path d="M1.11022302e-16,28 L6,28" id="Shape"></path>
                        <path d="M1.11022302e-16,37 L6,37" id="Shape"></path>
                        <path d="M1.11022302e-16,46 L6,46" id="Shape"></path>
                        <path d="M1.11022302e-16,56 L6,56" id="Shape"></path>
                        <rect id="Rectangle-path" x="49" y="7" width="9" height="12"></rect>
                        <rect id="Rectangle-path" x="49" y="19" width="9" height="12"></rect>
                        <rect id="Rectangle-path" x="49" y="31" width="9" height="12"></rect>
                        <rect id="Rectangle-path" x="49" y="43" width="9" height="12"></rect>
                    </g>
                </g>
            </g>
        </g>
    </g>
</svg>