<?xml version="1.0" encoding="UTF-8" standalone="no"?>
<svg width="17px" height="18px" viewBox="0 0 17 18" version="1.1" xmlns="http://www.w3.org/2000/svg" xmlns:xlink="http://www.w3.org/1999/xlink">
    <!-- Generator: sketchtool 3.8.3 (29802) - http://www.bohemiancoding.com/sketch -->
    <title>C4D9B2A1-4E0F-4AE9-8091-D2441DDCDD21</title>
    <desc>Created with sketchtool.</desc>
    <defs></defs>
    <g id="My-Company" stroke="none" stroke-width="1" fill="none" fill-rule="evenodd">
        <g id="driver-profile-loading" transform="translate(-131.000000, -206.000000)" fill="#162337">
            <g id="driver-profile" transform="translate(91.000000, 172.000000)">
                <g id="icon-/-driver-/-dark-gray" transform="translate(40.000000, 34.000000)">
                    <path d="M4.13383333,6.25896 C3.75629167,6.9696 3.54166667,7.78248 3.54166667,8.64432 C3.54166667,8.91576 3.56858333,9.18 3.60966667,9.43992 C5.51508333,9.7992 6.97425,11.45376 7.07270833,13.46904 C7.524625,13.60728 8.00345833,13.68432 8.5,13.68432 C8.99583333,13.68432 9.475375,13.608 9.92729167,13.46904 C10.02575,11.45376 11.4849167,9.7992 13.3910417,9.43992 C13.4314167,9.18 13.4583333,8.91576 13.4583333,8.64432 C13.4583333,7.78248 13.2437083,6.9696 12.8661667,6.25896 C10.0052083,5.60952 6.993375,5.61024 4.13383333,6.25896 L4.13383333,6.25896 Z M9.91666667,8.64432 C9.91666667,9.43776 9.28058333,10.08432 8.5,10.08432 C7.71870833,10.08432 7.08333333,9.43776 7.08333333,8.64432 C7.08333333,7.85016 7.71870833,7.20432 8.5,7.20432 C9.28058333,7.20432 9.91666667,7.85016 9.91666667,8.64432 L9.91666667,8.64432 Z" id="Shape"></path>
                    <path d="M8.5,0.00432 C3.81295833,0.00432 0,3.88008 0,8.64432 C0,13.40856 3.81295833,17.28432 8.5,17.28432 C13.1863333,17.28432 17,13.40856 17,8.64432 C17,3.88008 13.1863333,0.00432 8.5,0.00432 L8.5,0.00432 Z M8.5,14.40432 C5.37554167,14.40432 2.83333333,11.82024 2.83333333,8.64432 C2.83333333,5.4684 5.37554167,2.88432 8.5,2.88432 C11.6244583,2.88432 14.1666667,5.4684 14.1666667,8.64432 C14.1666667,11.82024 11.6244583,14.40432 8.5,14.40432 L8.5,14.40432 Z" id="Shape"></path>
                </g>
            </g>
        </g>
    </g>
</svg>