<?xml version="1.0" encoding="UTF-8" standalone="no"?>
<svg width="19px" height="17px" viewBox="0 0 19 17" version="1.1" xmlns="http://www.w3.org/2000/svg" xmlns:xlink="http://www.w3.org/1999/xlink">
    <!-- Generator: sketchtool 3.8.3 (29802) - http://www.bohemiancoding.com/sketch -->
    <title>DC6E8445-1E24-4CD2-8F56-6A1B8DF1DAF2</title>
    <desc>Created with sketchtool.</desc>
    <defs></defs>
    <g id="My-Company" stroke="none" stroke-width="1" fill="none" fill-rule="evenodd">
        <g id="portal-user-profile" transform="translate(-130.000000, -206.000000)" fill="#162337">
            <g id="driver-profile" transform="translate(90.000000, 172.000000)">
                <g id="name" transform="translate(40.000000, 30.000000)">
                    <g id="icon-/-user-/-dark-gray" transform="translate(0.000000, 4.000000)">
                        <path d="M4.35416667,5.66666667 L0.395833333,5.66666667 C0.177333333,5.66666667 0,5.848 0,6.07142857 L0,8.5 C0,9.37671429 0.266,9.90047619 0.791666667,10.064 L0.791666667,13.3571429 C0.791666667,13.5805714 0.969,13.7619048 1.1875,13.7619048 L3.5625,13.7619048 C3.781,13.7619048 3.95833333,13.5805714 3.95833333,13.3571429 L3.95833333,10.064 C4.48320833,9.90047619 4.74841667,9.37671429 4.75,8.5 L4.75,6.07142857 C4.75,5.848 4.57266667,5.66666667 4.35416667,5.66666667 L4.35416667,5.66666667 Z" id="Shape"></path>
                        <path d="M18.6041667,5.66666667 L14.6458333,5.66666667 C14.4273333,5.66666667 14.25,5.848 14.25,6.07142857 L14.25,8.5 C14.25,9.37671429 14.516,9.90047619 15.0416667,10.064 L15.0416667,13.3571429 C15.0416667,13.5805714 15.219,13.7619048 15.4375,13.7619048 L17.8125,13.7619048 C18.031,13.7619048 18.2083333,13.5805714 18.2083333,13.3571429 L18.2083333,10.064 C18.7332083,9.90047619 18.9992083,9.37671429 19,8.5 L19,6.07142857 C19,5.848 18.8226667,5.66666667 18.6041667,5.66666667 L18.6041667,5.66666667 Z" id="Shape"></path>
                        <path d="M12.2708333,5.66666667 L6.72916667,5.66666667 C6.51066667,5.66666667 6.33333333,5.848 6.33333333,6.07142857 L6.33333333,10.1190476 C6.33333333,11.0969524 7.01416667,11.9137619 7.91666667,12.102381 L7.91666667,16.5952381 C7.91666667,16.8186667 8.094,17 8.3125,17 L10.6875,17 C10.906,17 11.0833333,16.8186667 11.0833333,16.5952381 L11.0833333,12.102381 C11.9858333,11.9145714 12.6666667,11.0969524 12.6666667,10.1190476 L12.6666667,6.07142857 C12.6666667,5.848 12.4893333,5.66666667 12.2708333,5.66666667 L12.2708333,5.66666667 Z" id="Shape"></path>
                        <ellipse id="Oval" cx="2.375" cy="3.23809524" rx="1.58333333" ry="1.61904762"></ellipse>
                        <ellipse id="Oval" cx="16.625" cy="3.23809524" rx="1.58333333" ry="1.61904762"></ellipse>
                        <ellipse id="Oval" cx="9.5" cy="2.42857143" rx="2.375" ry="2.42857143"></ellipse>
                    </g>
                </g>
            </g>
        </g>
    </g>
</svg>