<?xml version="1.0" encoding="utf-8"?>
<!-- Generated by IcoMoon.io -->
<!DOCTYPE svg PUBLIC "-//W3C//DTD SVG 1.1//EN" "http://www.w3.org/Graphics/SVG/1.1/DTD/svg11.dtd">
<svg version="1.1" xmlns="http://www.w3.org/2000/svg" xmlns:xlink="http://www.w3.org/1999/xlink" width="35" height="35" viewBox="0 0 1021 1024">
  <g id="icomoon-ignore">
  </g>
  <path d="M132.642 217.534c0 2.653 0 5.306-2.653 7.959 90.197-90.197 228.145-129.99 360.788-87.544 129.99 42.446 220.187 153.865 241.409 281.202 0-2.653 2.653-5.306 2.653-7.959 53.057-167.13-37.14-344.87-204.269-397.927-164.477-50.404-344.87 39.793-397.927 204.269z"></path>
  <path d="M129.99 787.896c2.653 2.653 5.306 2.653 5.306 5.306-58.363-114.073-53.057-257.326 29.181-368.746s214.881-161.824 342.218-140.601c-2.653-2.653-2.653-2.653-5.306-5.306-140.601-106.114-336.912-74.28-440.373 66.321s-71.627 339.565 68.974 443.026z"></path>
  <path d="M671.171 965.637c2.653-2.653 2.653-2.653 5.306-5.306-127.337 18.57-262.632-29.181-342.218-140.601-82.238-111.42-87.544-254.674-29.181-368.746-2.653 2.653-5.306 2.653-5.306 5.306-140.601 103.461-172.435 299.772-68.974 443.026 100.808 137.948 297.119 167.13 440.373 66.321z"></path>
  <path d="M1005.43 506.694c0-2.653-2.653-5.306-2.653-7.959-21.223 127.337-108.767 238.756-241.409 281.202-129.99 42.446-267.938 5.306-360.788-87.544 0 2.653 0 5.306 2.653 7.959 53.057 167.13 233.451 257.326 397.927 204.269 167.13-53.057 259.979-233.451 204.269-397.927z"></path>
  <path d="M673.824 45.098c-2.653 0-5.306 0-7.959 0 114.073 58.363 193.658 177.741 193.658 315.689s-79.585 257.326-193.658 315.689c2.653 0 5.306 0 7.959 0 175.088 0 315.689-140.601 315.689-315.689s-140.601-315.689-315.689-315.689z"></path>
</svg>
