<?xml version="1.0" encoding="UTF-8" standalone="no"?>
<svg width="13px" height="13px" viewBox="0 0 13 13" version="1.1" xmlns="http://www.w3.org/2000/svg" xmlns:xlink="http://www.w3.org/1999/xlink">
    <!-- Generator: Sketch 39.1 (31720) - http://www.bohemiancoding.com/sketch -->
    <title>icon / warning</title>
    <desc>Created with Sketch.</desc>
    <defs></defs>
    <g id="Symbols" stroke="none" stroke-width="1" fill="none" fill-rule="evenodd">
        <g id="icon-/-warning">
            <circle id="warning-indicator-bg" fill="#F18300" cx="6.38883657" cy="6.61116343" r="6.38883657"></circle>
            <path d="M7.21146282,7.1367435 C7.18244397,7.69265355 6.71040116,8.14330769 6.15197445,8.14330769 L6.64352468,8.14330769 C6.08740426,8.14330769 5.61369586,7.70492725 5.58403632,7.1367435 L5.37092885,3.05427293 C5.34191,2.49836287 5.76567541,2.04770873 6.32191237,2.04770873 L6.47358676,2.04770873 C7.02781931,2.04770873 7.45422983,2.48608918 7.42457029,3.05427293 L7.21146282,7.1367435 Z M5.29342919,9.82608161 C5.29342919,9.47669036 5.38701472,9.21257118 5.5741886,9.03371614 C5.76136249,8.85486109 6.03380038,8.76543491 6.39151047,8.76543491 C6.7367423,8.76543491 7.003981,8.85694077 7.19323459,9.03995523 C7.38248818,9.2229697 7.47711356,9.4850092 7.47711356,9.82608161 C7.47711356,10.1546758 7.38144834,10.4135957 7.19011504,10.6028493 C6.99878174,10.7921029 6.73258288,10.8867283 6.39151047,10.8867283 C6.04211922,10.8867283 5.771761,10.7941826 5.5804277,10.6090884 C5.3890944,10.4239943 5.29342919,10.1629946 5.29342919,9.82608161 L5.29342919,9.82608161 Z" id="!" fill="#FFFFFF"></path>
        </g>
    </g>
</svg>