<?xml version="1.0" encoding="UTF-8" standalone="no"?>
<svg width="18px" height="19px" viewBox="0 0 18 19" version="1.1" xmlns="http://www.w3.org/2000/svg" xmlns:xlink="http://www.w3.org/1999/xlink">
    <!-- Generator: sketchtool 3.8.3 (29802) - http://www.bohemiancoding.com/sketch -->
    <title>5D6D5A69-B286-48DC-9CE6-8CB74EED7CA6</title>
    <desc>Created with sketchtool.</desc>
    <defs>
        <rect id="path-1" x="0" y="1.95" width="18" height="15.6"></rect>
        <mask id="mask-2" maskContentUnits="userSpaceOnUse" maskUnits="objectBoundingBox" x="0" y="0" width="18" height="15.6" fill="white">
            <use xlink:href="#path-1"></use>
        </mask>
    </defs>
    <g id="States,-Interactions,-Misc" stroke="none" stroke-width="1" fill="none" fill-rule="evenodd">
        <g id="patterns" transform="translate(-760.000000, -483.000000)">
            <g id="Group-2" transform="translate(745.000000, 473.000000)">
                <g id="icon-/-calendar-/-gray" transform="translate(15.000000, 10.725000)">
                    <g id="Group-3">
                        <use id="Rectangle-104" stroke="#FFFFFF" mask="url(#mask-2)" stroke-width="4" xlink:href="#path-1"></use>
                        <rect id="Rectangle-104-Copy" fill="#FFFFFF" x="0" y="0" width="18" height="1.95"></rect>
                    </g>
                    <path d="M8.60107422,7.81190186 C8.60107422,8.20323682 8.4794934,8.53600937 8.23632812,8.81022949 C7.99316285,9.08444961 7.65185767,9.27297312 7.21240234,9.37580566 L7.21240234,9.40151367 C7.73095962,9.46435578 8.12353382,9.61788818 8.39013672,9.86211548 C8.65673961,10.1063428 8.79003906,10.4355448 8.79003906,10.8497314 C8.79003906,11.4524444 8.56592021,11.9216109 8.11767578,12.2572449 C7.66943135,12.5928789 7.02930104,12.7606934 6.19726562,12.7606934 C5.49999651,12.7606934 4.88183863,12.6478649 4.34277344,12.4222046 L4.34277344,11.2953369 C4.59179812,11.4181647 4.86572116,11.5181393 5.16455078,11.5952637 C5.4633804,11.6723881 5.75927588,11.7109497 6.05224609,11.7109497 C6.50049052,11.7109497 6.8315419,11.6366829 7.04541016,11.488147 C7.25927841,11.3396111 7.36621094,11.1011003 7.36621094,10.7726074 C7.36621094,10.4783921 7.24316529,10.2698737 6.99707031,10.1470459 C6.75097533,10.0242181 6.35840113,9.96280518 5.81933594,9.96280518 L5.33154297,9.96280518 L5.33154297,8.94733887 L5.828125,8.94733887 C6.32617437,8.94733887 6.6901844,8.88378359 6.92016602,8.75667114 C7.15014763,8.62955869 7.26513672,8.41175691 7.26513672,8.10325928 C7.26513672,7.62908698 6.96045227,7.39200439 6.35107422,7.39200439 C6.14013566,7.39200439 5.9255382,7.4262814 5.70727539,7.49483643 C5.48901258,7.56339146 5.24658336,7.68193275 4.97998047,7.85046387 L4.3515625,6.93782959 C4.93750293,6.52649941 5.63622641,6.3208374 6.44775391,6.3208374 C7.11279629,6.3208374 7.63793753,6.45223257 8.02319336,6.71502686 C8.40844919,6.97782114 8.60107422,7.34344248 8.60107422,7.81190186 L8.60107422,7.81190186 Z M12.8549805,12.675 L11.4970703,12.675 L11.4970703,9.0501709 L11.5102539,8.45460205 L11.5322266,7.80333252 C11.3066395,8.02327991 11.1499028,8.16752895 11.0620117,8.23608398 L10.3237305,8.81451416 L9.66894531,8.01756592 L11.7387695,6.41081543 L12.8549805,6.41081543 L12.8549805,12.675 Z" id="31" fill="#FFFFFF"></path>
                </g>
            </g>
        </g>
    </g>
</svg>