<svg width="10px" height="14px" viewBox="0 0 10 14" version="1.1" xmlns="http://www.w3.org/2000/svg" xmlns:xlink="http://www.w3.org/1999/xlink">

    <g id="Load-Management" stroke="none" stroke-width="1" fill="none" fill-rule="evenodd">
        <g id="load-management-details" transform="translate(-995.000000, -765.000000)">
            <g id="equipment" transform="translate(839.000000, 645.000000)">
                <g id="add-pencil" transform="translate(160.500000, 127.500000) rotate(30.000000) translate(-160.500000, -127.500000) translate(158.000000, 120.000000)">
                    <path d="M0,2.0857662 C0,0.933829334 1.10966206,-2.84217094e-14 2.5,-2.84217094e-14 C3.88071187,-2.84217094e-14 5,0.935010935 5,2.0857662 L5,11.6666667 L0,11.6666667 L0,2.0857662 L0,2.0857662 L0,2.0857662 L0,2.0857662 Z M0,11.6666667 L5,11.6666667 L2.42857143,15 L0,11.6666667 L0,11.6666667 L0,11.6666667 L0,11.6666667 Z" id="Combined-Shape" fill="#26C1FC"></path>
                    <path d="M3,4 L3,9" id="Path-346" stroke="#FFFFFF"></path>
                </g>
            </g>
        </g>
    </g>
</svg>