<?xml version="1.0" encoding="UTF-8" standalone="no"?>
<svg width="12px" height="12px" viewBox="0 0 12 12" version="1.1" xmlns="http://www.w3.org/2000/svg" xmlns:xlink="http://www.w3.org/1999/xlink">
    <!-- Generator: sketchtool 39.1 (31720) - http://www.bohemiancoding.com/sketch -->
    <title>D67B235A-52F3-4410-9B24-86A312DE3E45</title>
    <desc>Created with sketchtool.</desc>
    <defs></defs>
    <g id="Documentation" stroke="none" stroke-width="1" fill="none" fill-rule="evenodd">
        <g id="document-image---overlay" transform="translate(-1112.000000, -77.000000)" fill="#26C1FB">
            <g id="actions" transform="translate(864.000000, 73.000000)">
                <g id="add-pages" transform="translate(248.000000, 0.000000)">
                    <path d="M6.66666667,9.33333333 L6.66666667,4.66226512 C6.66666667,4.29663086 6.36818983,4 6,4 C5.62924321,4 5.33333333,4.29650619 5.33333333,4.66226512 L5.33333333,9.33333333 L0.662265122,9.33333333 C0.296630859,9.33333333 0,9.63181017 0,10 C0,10.3707568 0.296506195,10.6666667 0.662265122,10.6666667 L5.33333333,10.6666667 L5.33333333,15.3377349 C5.33333333,15.7033691 5.63181017,16 6,16 C6.37075679,16 6.66666667,15.7034938 6.66666667,15.3377349 L6.66666667,10.6666667 L11.3377349,10.6666667 C11.7033691,10.6666667 12,10.3681898 12,10 C12,9.62924321 11.7034938,9.33333333 11.3377349,9.33333333 L6.66666667,9.33333333 Z" id="icon-/-add"></path>
                </g>
            </g>
        </g>
    </g>
</svg>