<svg width="12" height="12" viewBox="0 0 12 12" xmlns="http://www.w3.org/2000/svg" xmlns:xlink="http://www.w3.org/1999/xlink">
    <defs>
        <path id="a" d="M0 1.333h12V12H0z"/>
        <mask id="b" x="0" y="0" width="12" height="10.667" fill="#fff">
            <use xlink:href="#a"/>
        </mask>
    </defs>
    <g fill="none" fill-rule="evenodd">
        <use stroke="#A9ADAF" mask="url(#b)" stroke-width="2.667" xlink:href="#a"/>
        <path fill="#A9ADAF" d="M0 0h12v1.333H0zM8.57 8.667h-.905V6.188l.009-.407.014-.445c-.15.15-.255.249-.313.296l-.493.395-.436-.545 1.38-1.099h.744v4.284zM5.734 5.341c0 .268-.081.496-.243.683-.162.188-.39.316-.683.387v.017c.346.043.608.148.785.315.178.167.267.392.267.676 0 .412-.15.733-.448.962-.299.23-.726.344-1.28.344-.465 0-.877-.077-1.237-.231v-.77c.166.083.349.152.548.204.2.053.397.08.592.08.299 0 .52-.051.662-.153.143-.101.214-.265.214-.49 0-.2-.082-.343-.246-.427-.164-.084-.426-.126-.785-.126h-.326v-.694h.331c.332 0 .575-.044.728-.13.154-.087.23-.236.23-.447 0-.325-.203-.487-.609-.487-.14 0-.284.024-.43.07-.145.048-.306.129-.484.244l-.419-.624c.39-.281.856-.422 1.398-.422.443 0 .793.09 1.05.27.257.18.385.43.385.75z"/>
    </g>
</svg>