<?xml version="1.0" encoding="UTF-8" standalone="no"?>
<svg width="12px" height="12px" viewBox="0 0 12 12" version="1.1" xmlns="http://www.w3.org/2000/svg" xmlns:xlink="http://www.w3.org/1999/xlink">
    <!-- Generator: sketchtool 39.1 (31720) - http://www.bohemiancoding.com/sketch -->
    <title>0CD2F06F-0461-4024-BAEF-DD0E897634CA</title>
    <desc>Created with sketchtool.</desc>
    <defs>
        <rect id="path-1" x="0" y="1.33333333" width="12" height="10.6666667"></rect>
        <mask id="mask-2" maskContentUnits="userSpaceOnUse" maskUnits="objectBoundingBox" x="0" y="0" width="12" height="10.6666667" fill="white">
            <use xlink:href="#path-1"></use>
        </mask>
    </defs>
    <g id="Invoicing" stroke="none" stroke-width="1" fill="none" fill-rule="evenodd">
        <g id="add-invoice---overlay" transform="translate(-443.000000, -549.000000)">
            <g id="invoice-details" transform="translate(268.000000, 375.000000)">
                <g id="Group-Copy-2" transform="translate(0.000000, 150.000000)">
                    <g id="icon-/-calendar-/-gray" transform="translate(175.000000, 24.000000)">
                        <use id="frame" stroke="#A9ADAF" mask="url(#mask-2)" stroke-width="2.66666667" xlink:href="#path-1"></use>
                        <rect id="bar" fill="#A9ADAF" x="0" y="0" width="12" height="1.33333333"></rect>
                        <path d="M8.56998698,8.66666667 L7.66471354,8.66666667 L7.66471354,6.18815104 L7.6735026,5.78092448 L7.68815104,5.33561198 C7.53775966,5.48600336 7.43326852,5.58463518 7.37467448,5.63151042 L6.88248698,6.02701823 L6.44596354,5.48209635 L7.82584635,4.38346354 L8.56998698,4.38346354 L8.56998698,8.66666667 L8.56998698,8.66666667 Z" id="1" fill="#A9ADAF"></path>
                        <path d="M5.73404948,5.34147135 C5.73404948,5.60905082 5.6529956,5.8365876 5.49088542,6.02408854 C5.32877523,6.21158948 5.10123844,6.34049444 4.80826823,6.41080729 L4.80826823,6.42838542 C5.15397308,6.47135438 5.41568922,6.5763338 5.59342448,6.74332682 C5.77115974,6.91031985 5.86002604,7.13541525 5.86002604,7.41861979 C5.86002604,7.83073123 5.71061347,8.1515288 5.41178385,8.38102214 C5.11295424,8.61051547 4.68620069,8.72526042 4.13151042,8.72526042 C3.66666434,8.72526042 3.25455909,8.64811275 2.89518229,8.4938151 L2.89518229,7.72330729 C3.06119875,7.80729209 3.24381411,7.87565078 3.44303385,7.92838542 C3.6422536,7.98112006 3.83951725,8.00748698 4.03483073,8.00748698 C4.33366035,8.00748698 4.55436127,7.95670624 4.6969401,7.85514323 C4.83951894,7.75358022 4.91080729,7.59049591 4.91080729,7.36588542 C4.91080729,7.16471254 4.82877686,7.02213584 4.66471354,6.93815104 C4.50065022,6.85416625 4.23893409,6.81217448 3.87955729,6.81217448 L3.55436198,6.81217448 L3.55436198,6.11783854 L3.88541667,6.11783854 C4.21744958,6.11783854 4.46012293,6.07438194 4.61344401,5.98746745 C4.76676509,5.90055295 4.84342448,5.75162866 4.84342448,5.5406901 C4.84342448,5.21646973 4.64030151,5.05436198 4.23404948,5.05436198 C4.09342378,5.05436198 3.9503588,5.07779924 3.80485026,5.12467448 C3.65934172,5.17154971 3.49772224,5.25260359 3.31998698,5.36783854 L2.90104167,4.7438151 C3.29166862,4.4625637 3.75748427,4.3219401 4.2985026,4.3219401 C4.7418642,4.3219401 5.09195835,4.41178296 5.34879557,4.59147135 C5.60563279,4.77115975 5.73404948,5.02115725 5.73404948,5.34147135 L5.73404948,5.34147135 L5.73404948,5.34147135 Z" id="3" fill="#A9ADAF"></path>
                    </g>
                </g>
            </g>
        </g>
    </g>
</svg>