<?xml version="1.0" encoding="UTF-8" standalone="no"?>
<svg width="24px" height="21px" viewBox="0 0 24 21" version="1.1" xmlns="http://www.w3.org/2000/svg" xmlns:xlink="http://www.w3.org/1999/xlink">
    <!-- Generator: sketchtool 3.8.3 (29802) - http://www.bohemiancoding.com/sketch -->
    <title>25A4F34C-CB32-4476-B1A2-4D3561FBCF1E</title>
    <desc>Created with sketchtool.</desc>
    <defs></defs>
    <g id="My-Company" stroke="none" stroke-width="1" fill="none" fill-rule="evenodd">
        <g id="driver-list" transform="translate(-110.000000, -143.000000)" fill="#515965">
            <g id="tabs" transform="translate(0.000000, 112.000000)">
                <g id="icon-/-portal-users-/-active" transform="translate(110.000000, 31.000000)">
                    <path d="M5.5,7 L0.5,7 C0.224,7 0,7.224 0,7.5 L0,10.5 C0,11.583 0.336,12.23 1,12.432 L1,16.5 C1,16.776 1.224,17 1.5,17 L4.5,17 C4.776,17 5,16.776 5,16.5 L5,12.432 C5.663,12.23 5.998,11.583 6,10.5 L6,7.5 C6,7.224 5.776,7 5.5,7 Z M23.5,7 L18.5,7 C18.224,7 18,7.224 18,7.5 L18,10.5 C18,11.583 18.336,12.23 19,12.432 L19,16.5 C19,16.776 19.224,17 19.5,17 L22.5,17 C22.776,17 23,16.776 23,16.5 L23,12.432 C23.663,12.23 23.999,11.583 24,10.5 L24,7.5 C24,7.224 23.776,7 23.5,7 Z M15.5,7 L8.5,7 C8.224,7 8,7.224 8,7.5 L8,12.5 C8,13.708 8.86,14.717 10,14.95 L10,20.5 C10,20.776 10.224,21 10.5,21 L13.5,21 C13.776,21 14,20.776 14,20.5 L14,14.95 C15.14,14.718 16,13.708 16,12.5 L16,7.5 C16,7.224 15.776,7 15.5,7 Z M3,6 C4.1045695,6 5,5.1045695 5,4 C5,2.8954305 4.1045695,2 3,2 C1.8954305,2 1,2.8954305 1,4 C1,5.1045695 1.8954305,6 3,6 Z M21,6 C22.1045695,6 23,5.1045695 23,4 C23,2.8954305 22.1045695,2 21,2 C19.8954305,2 19,2.8954305 19,4 C19,5.1045695 19.8954305,6 21,6 Z M12,6 C13.6568542,6 15,4.65685425 15,3 C15,1.34314575 13.6568542,0 12,0 C10.3431458,0 9,1.34314575 9,3 C9,4.65685425 10.3431458,6 12,6 Z" id="icon-/-users"></path>
                </g>
            </g>
        </g>
    </g>
</svg>