<?xml version="1.0" encoding="UTF-8" standalone="no"?>
<svg width="43px" height="43px" viewBox="0 0 43 43" version="1.1" xmlns="http://www.w3.org/2000/svg" xmlns:xlink="http://www.w3.org/1999/xlink">
    <!-- Generator: sketchtool 3.8.3 (29802) - http://www.bohemiancoding.com/sketch -->
    <title>47DF21DF-17CB-4150-90C1-1CD90469FFAB</title>
    <desc>Created with sketchtool.</desc>
    <defs></defs>
    <g id="My-Company" stroke="none" stroke-width="1" fill="none" fill-rule="evenodd">
        <g id="portal-user-list" transform="translate(-994.000000, -511.000000)" fill="#A9ADAF">
            <g id="component-/-add-new" transform="translate(840.000000, 447.000000)">
                <g id="add-new">
                    <path d="M178,83 L178,66.0019996 C178,64.8981161 177.104569,64 176,64 C174.88773,64 174,64.8963257 174,66.0019996 L174,83 L156.002,83 C154.898116,83 154,83.8954305 154,85 C154,86.1122704 154.896326,87 156.002,87 L174,87 L174,104.998 C174,106.101884 174.895431,107 176,107 C177.11227,107 178,106.103674 178,104.998 L178,87 L194.998,87 C196.101884,87 197,86.1045695 197,85 C197,83.8877296 196.103674,83 194.998,83 L178,83 Z" id="icon-/-plus"></path>
                </g>
            </g>
        </g>
    </g>
</svg>