<?xml version="1.0" encoding="UTF-8" standalone="no"?>
<svg width="200px" height="223px" viewBox="0 0 200 223" version="1.1" xmlns="http://www.w3.org/2000/svg" xmlns:xlink="http://www.w3.org/1999/xlink">
    <!-- Generator: Sketch 45.2 (43514) - http://www.bohemiancoding.com/sketch -->
    <title>relay-logo-yellow</title>
    <desc>Created with Sketch.</desc>
    <defs></defs>
    <g id="Page-1" stroke="none" stroke-width="1" fill="none" fill-rule="evenodd">
        <g id="relay-logo-yellow" fill="#FCEE23">
            <path d="M0.211,133.338 C0.211,133.338 0,139.492 6.541,139.492 C12.917,139.492 12.962,133.252 12.962,133.252 L12.962,96.255 L23.715,96.255 L23.715,106.007 C23.715,106.007 23.547,111.496 30.205,111.496 C36.181,111.496 36.481,106.017 36.481,106.017 L36.503,88.964 C36.503,88.964 36.481,83.509 30.237,83.509 L11.71,83.509 L11.71,70.958 C11.71,70.958 11.668,64.788 19.286,60.11 C24.557,56.872 91.854,18.042 91.854,18.042 C91.854,18.042 99.989,12.646 109.568,18.011 C118.112,22.795 188.268,63.135 188.268,63.135 C188.268,63.135 194.982,66.424 198.277,61.57 C202.512,55.33 195.149,51.452 195.149,51.452 L107.9,2.63 C107.9,2.63 100.133,-2.218 91.92,2.634 C82.574,8.154 7.505,51.869 7.505,51.869 C7.505,51.869 0,55.937 0,64.491 C0,73.045 0.211,133.338 0.211,133.338 M199.379,89.887 C199.379,89.887 199.589,83.733 193.048,83.733 C186.673,83.733 186.628,89.974 186.628,89.974 L186.628,126.969 L175.876,126.969 L175.876,117.217 C175.876,117.217 176.043,111.729 169.386,111.729 C163.409,111.729 163.109,117.207 163.109,117.207 L163.086,134.261 C163.086,134.261 163.109,139.716 169.353,139.716 L187.88,139.716 L187.88,152.266 C187.88,152.266 187.922,158.436 180.305,163.116 C175.032,166.354 107.736,205.183 107.736,205.183 C107.736,205.183 99.601,210.579 90.022,205.215 C81.478,200.431 11.322,160.09 11.322,160.09 C11.322,160.09 4.608,156.801 1.314,161.655 C-2.922,167.895 4.441,171.774 4.441,171.774 L91.689,220.594 C91.689,220.594 99.456,225.444 107.669,220.592 C117.016,215.072 192.085,171.356 192.085,171.356 C192.085,171.356 199.59,167.288 199.59,158.734 C199.59,150.18 199.379,89.887 199.379,89.887" id="Shape"></path>
            <path d="M93.482,73.462 C93.482,73.462 93.482,67.442 99.556,67.442 C106.085,67.442 105.949,73.462 105.949,73.462 L106.109,149.507 C106.109,149.507 105.865,155.974 99.337,155.974 C93.517,155.974 93.482,149.507 93.482,149.507 L93.482,73.462 L93.482,73.462 Z M58.325,107.974 L70.065,107.974 L70.065,96.227 L58.325,96.227 L58.325,107.974 L58.325,107.974 Z M76.298,127.047 L57.586,127.09 L57.576,120.499 L75.194,120.499 C82.387,120.499 82.491,115.337 82.491,115.337 L82.491,89.1 C82.491,83.554 76.499,83.574 76.499,83.574 L52.233,83.574 C46.317,83.574 46.317,88.996 46.317,88.996 L46.317,133.92 C46.317,139.31 51.954,139.561 51.954,139.561 L76.445,139.561 C76.445,139.561 82.591,139.505 82.591,133.12 C82.591,126.897 76.298,127.047 76.298,127.047 L76.298,127.047 Z M129.278,127.273 L141.018,127.273 L141.018,115.526 L129.278,115.526 L129.278,127.273 Z M147.336,83.664 L122.845,83.664 C122.845,83.664 116.699,83.72 116.699,90.106 C116.699,96.328 122.992,96.178 122.992,96.178 L141.704,96.134 L141.714,102.727 L124.096,102.727 C116.902,102.727 116.799,107.888 116.799,107.888 L116.799,134.125 C116.799,139.67 122.792,139.652 122.792,139.652 L147.058,139.652 C152.973,139.652 152.973,134.229 152.973,134.229 L152.973,89.305 C152.973,83.915 147.336,83.665 147.336,83.665 L147.336,83.664 Z" id="Shape"></path>
        </g>
    </g>
</svg>