<?xml version="1.0" encoding="UTF-8" standalone="no"?>
<svg width="15px" height="14px" viewBox="0 0 15 14" version="1.1" xmlns="http://www.w3.org/2000/svg" xmlns:xlink="http://www.w3.org/1999/xlink">
    <!-- Generator: sketchtool 39.1 (31720) - http://www.bohemiancoding.com/sketch -->
    <title>D83669D4-27BF-47AF-B6FB-BE86282B5AB8</title>
    <desc>Created with sketchtool.</desc>
    <defs></defs>
    <g id="Documentation" stroke="none" stroke-width="1" fill="none" fill-rule="evenodd">
        <g id="document-image---overlay" transform="translate(-1040.000000, -76.000000)" fill="#26C1FB">
            <g id="actions" transform="translate(864.000000, 73.000000)">
                <g id="print" transform="translate(176.000000, 0.000000)">
                    <path d="M13.4375,6.81818182 L1.5625,6.81818182 C0.700625,6.81818182 0,7.53218182 0,8.40909091 L0,12.2272727 C0,13.1041818 0.700625,13.8181818 1.5625,13.8181818 L3.125,13.8181818 L3.125,16.6818182 C3.125,16.8574545 3.265,17 3.4375,17 L11.5625,17 C11.734375,17 11.875,16.8574545 11.875,16.6818182 L11.875,13.8181818 L13.4375,13.8181818 C14.29875,13.8181818 15,13.1041818 15,12.2272727 L15,8.40909091 C15,7.53218182 14.29875,6.81818182 13.4375,6.81818182 L13.4375,6.81818182 L13.4375,6.81818182 Z M11.25,16.3636364 L3.75,16.3636364 L3.75,11.9090909 L11.25,11.9090909 L11.25,16.3636364 L11.25,16.3636364 Z M11.5625,6.18181818 C11.734375,6.18181818 11.875,6.03927273 11.875,5.86363636 L11.875,5.22727273 C11.875,5.14263636 11.841875,5.06181818 11.78375,5.00263636 L9.90875,3.09354545 C9.85,3.03372727 9.770625,3 9.6875,3 L3.4375,3 C3.265,3 3.125,3.14254545 3.125,3.31818182 L3.125,5.86363636 C3.125,6.03927273 3.265,6.18181818 3.4375,6.18181818 L11.5625,6.18181818 Z" id="icon-/-print"></path>
                </g>
            </g>
        </g>
    </g>
</svg>