<?xml version="1.0" encoding="UTF-8" standalone="no"?>
<svg width="21px" height="21px" viewBox="0 0 21 21" version="1.1" xmlns="http://www.w3.org/2000/svg" xmlns:xlink="http://www.w3.org/1999/xlink">
    <!-- Generator: Sketch 3.8.3 (29802) - http://www.bohemiancoding.com/sketch -->
    <title>icon / question</title>
    <desc>Created with Sketch.</desc>
    <defs></defs>
    <g id="My-Company" stroke="none" stroke-width="1" fill="none" fill-rule="evenodd">
        <g id="portal-user-profile" transform="translate(-691.000000, -270.000000)">
            <g id="usage" transform="translate(651.000000, 172.000000)">
                <g id="Group-7" transform="translate(40.000000, 98.000000)">
                    <g id="icon-/-question">
                        <circle id="bg" fill="#A9ADAF" cx="10.5" cy="10.5" r="10.5"></circle>
                        <path d="M9.04989154,12 L9.04989154,11.4068136 C9.04989154,10.893785 9.15365044,10.4475637 9.36117137,10.0681363 C9.56869229,9.68870886 9.94829804,9.28523928 10.5,8.85771543 C11.031456,8.45691182 11.3819587,8.13092978 11.5515184,7.87975952 C11.7210782,7.62858926 11.8058568,7.34803094 11.8058568,7.03807615 C11.8058568,6.69071303 11.684383,6.42618661 11.4414317,6.24448898 C11.1984803,6.06279134 10.8593659,5.97194389 10.4240781,5.97194389 C9.66485521,5.97194389 8.7993541,6.23379832 7.82754881,6.75751503 L7,5.00200401 C8.12871136,4.333998 9.32573482,4 10.5911063,4 C11.6337724,4 12.4625783,4.26452641 13.0775488,4.79358717 C13.6925193,5.32264794 14,6.0280517 14,6.90981964 C14,7.49766493 13.8734648,8.00534188 13.6203905,8.43286573 C13.3673162,8.86038958 12.8864822,9.34134669 12.1778742,9.8757515 C11.6919715,10.2551789 11.3844909,10.5437532 11.255423,10.741483 C11.1263551,10.9392127 11.0618221,11.1983952 11.0618221,11.5190381 L11.0618221,12 L9.04989154,12 Z M8.90625,14.8828125 C8.90625,14.4453103 9.02343633,14.1145845 9.2578125,13.890625 C9.49218867,13.6666655 9.83333109,13.5546875 10.28125,13.5546875 C10.7135438,13.5546875 11.0481759,13.6692697 11.2851562,13.8984375 C11.5221366,14.1276053 11.640625,14.455727 11.640625,14.8828125 C11.640625,15.2942729 11.5208345,15.6184884 11.28125,15.8554688 C11.0416655,16.0924491 10.7083355,16.2109375 10.28125,16.2109375 C9.84374781,16.2109375 9.50520953,16.0950532 9.265625,15.8632812 C9.02604047,15.6315093 8.90625,15.3046896 8.90625,14.8828125 L8.90625,14.8828125 Z" id="?" fill="#FFFFFF"></path>
                    </g>
                </g>
            </g>
        </g>
    </g>
</svg>