<?xml version="1.0" encoding="UTF-8" standalone="no"?>
<svg width="18px" height="18px" viewBox="0 0 18 18" version="1.1" xmlns="http://www.w3.org/2000/svg" xmlns:xlink="http://www.w3.org/1999/xlink">
    <!-- Generator: sketchtool 40.1 (33804) - http://www.bohemiancoding.com/sketch -->
    <title>9B9DFA79-7A8C-4207-AF05-F37B0CC605B7</title>
    <desc>Created with sketchtool.</desc>
    <defs>
        <rect id="path-1" x="0" y="2" width="18" height="16"></rect>
        <mask id="mask-2" maskContentUnits="userSpaceOnUse" maskUnits="objectBoundingBox" x="0" y="0" width="18" height="16" fill="white">
            <use xlink:href="#path-1"></use>
        </mask>
    </defs>
    <g id="States,-Interactions,-Misc" stroke="none" stroke-width="1" fill="none" fill-rule="evenodd">
        <g id="patterns" transform="translate(-216.000000, -484.000000)">
            <g id="default-filter" transform="translate(201.000000, 473.000000)">
                <g id="icon-/-calendar-/-gray" transform="translate(15.000000, 11.000000)">
                    <use id="frame" stroke="#26C1FB" mask="url(#mask-2)" stroke-width="4" xlink:href="#path-1"></use>
                    <rect id="bar" fill="#26C1FB" x="0" y="0" width="18" height="2"></rect>
                    <path d="M12.8549805,13 L11.4970703,13 L11.4970703,9.28222656 L11.5102539,8.67138672 L11.5322266,8.00341797 C11.3066395,8.22900503 11.1499028,8.37695277 11.0620117,8.44726562 L10.3237305,9.04052734 L9.66894531,8.22314453 L11.7387695,6.57519531 L12.8549805,6.57519531 L12.8549805,13 L12.8549805,13 Z" id="1" fill="#26C1FB"></path>
                    <path d="M8.60107422,8.01220703 C8.60107422,8.41357623 8.4794934,8.75488141 8.23632812,9.03613281 C7.99316285,9.31738422 7.65185767,9.51074166 7.21240234,9.61621094 L7.21240234,9.64257812 C7.73095962,9.70703157 8.12353382,9.8645007 8.39013672,10.1149902 C8.65673961,10.3654798 8.79003906,10.7031229 8.79003906,11.1279297 C8.79003906,11.7460968 8.56592021,12.2272932 8.11767578,12.5715332 C7.66943135,12.9157732 7.02930104,13.0878906 6.19726562,13.0878906 C5.49999651,13.0878906 4.88183863,12.9721691 4.34277344,12.7407227 L4.34277344,11.5849609 C4.59179812,11.7109381 4.86572116,11.8134762 5.16455078,11.8925781 C5.4633804,11.9716801 5.75927588,12.0112305 6.05224609,12.0112305 C6.50049052,12.0112305 6.8315419,11.9350594 7.04541016,11.7827148 C7.25927841,11.6303703 7.36621094,11.3857439 7.36621094,11.0488281 C7.36621094,10.7470688 7.24316529,10.5332038 6.99707031,10.4072266 C6.75097533,10.2812494 6.35840113,10.2182617 5.81933594,10.2182617 L5.33154297,10.2182617 L5.33154297,9.17675781 L5.828125,9.17675781 C6.32617437,9.17675781 6.6901844,9.11157292 6.92016602,8.98120117 C7.15014763,8.85082943 7.26513672,8.62744299 7.26513672,8.31103516 C7.26513672,7.8247046 6.96045227,7.58154297 6.35107422,7.58154297 C6.14013566,7.58154297 5.9255382,7.61669887 5.70727539,7.68701172 C5.48901258,7.75732457 5.24658336,7.87890539 4.97998047,8.05175781 L4.3515625,7.11572266 C4.93750293,6.69384555 5.63622641,6.48291016 6.44775391,6.48291016 C7.11279629,6.48291016 7.63793753,6.61767443 8.02319336,6.88720703 C8.40844919,7.15673963 8.60107422,7.53173588 8.60107422,8.01220703 L8.60107422,8.01220703 L8.60107422,8.01220703 Z" id="3" fill="#26C1FB"></path>
                </g>
            </g>
        </g>
    </g>
</svg>