<?xml version="1.0" encoding="UTF-8" standalone="no"?>
<svg width="22px" height="22px" viewBox="0 0 22 22" version="1.1" xmlns="http://www.w3.org/2000/svg" xmlns:xlink="http://www.w3.org/1999/xlink">
    <!-- Generator: Sketch 3.8.3 (29802) - http://www.bohemiancoding.com/sketch -->
    <title>loader / small copy</title>
    <desc>Created with Sketch.</desc>
    <defs></defs>
    <g id="States,-Interactions,-Misc" stroke="none" stroke-width="1" fill="none" fill-rule="evenodd">
        <g id="patterns" transform="translate(-1002.000000, -3395.000000)" stroke-width="3">
            <g id="loader-/-small-copy" transform="translate(1004.000000, 3397.000000)">
                <path d="M9,18 C11.918828,18 14.5131271,16.6105265 16.1575374,14.4569392 C17.3134444,12.9431158 18,11.0517347 18,9 C18,7.31751183 17.538324,5.74285387 16.7347454,4.39579955 C15.1643175,1.76326097 12.2880746,0 9,0 C4.02943725,0 0,4.02943725 0,9 C0,13.9705627 4.02943725,18 9,18 Z" id="Oval-34" stroke="#E1E2E3"></path>
                <path d="M2.63603897,15.363961 C3.46504129,16.1929633 4.4550176,16.8609917 5.55505929,17.3171374 C6.61618829,17.7571475 7.77973352,18 9,18 C11.918828,18 14.5131271,16.6105265 16.1575374,14.4569392 C17.3134444,12.9431158 18,11.0517347 18,9 C18,7.31751183 17.538324,5.74285387 16.7347454,4.39579955 C15.1643175,1.76326097 12.2880746,0 9,0" id="Oval-34-Copy" stroke="#26C1FC"></path>
            </g>
        </g>
    </g>
</svg>