<?xml version="1.0" encoding="UTF-8" standalone="no"?>
<svg width="23px" height="24px" viewBox="0 0 23 24" version="1.1" xmlns="http://www.w3.org/2000/svg" xmlns:xlink="http://www.w3.org/1999/xlink">
    <!-- Generator: sketchtool 3.8.3 (29802) - http://www.bohemiancoding.com/sketch -->
    <title>EF1B85E5-6F8C-4216-A830-5D7BECB24A27</title>
    <desc>Created with sketchtool.</desc>
    <defs></defs>
    <g id="My-Company" stroke="none" stroke-width="1" fill="none" fill-rule="evenodd">
        <g id="driver-list" transform="translate(-315.000000, -141.000000)" fill="#26C1FC">
            <g id="tabs" transform="translate(0.000000, 112.000000)">
                <g id="icon-/-drivers-/-inactive" transform="translate(315.000000, 29.000000)">
                    <path d="M5.59283333,8.693 C5.08204167,9.68 4.79166667,10.809 4.79166667,12.006 C4.79166667,12.383 4.82808333,12.75 4.88366667,13.111 C7.46158333,13.61 9.43575,15.908 9.56895833,18.707 C10.180375,18.899 10.8282083,19.006 11.5,19.006 C12.1708333,19.006 12.819625,18.9 13.4310417,18.707 C13.56425,15.908 15.5384167,13.61 18.1172917,13.111 C18.1719167,12.75 18.2083333,12.383 18.2083333,12.006 C18.2083333,10.809 17.9179583,9.68 17.4071667,8.693 C13.5364583,7.791 9.461625,7.792 5.59283333,8.693 L5.59283333,8.693 Z M13.4166667,12.006 C13.4166667,13.108 12.5560833,14.006 11.5,14.006 C10.4429583,14.006 9.58333333,13.108 9.58333333,12.006 C9.58333333,10.903 10.4429583,10.006 11.5,10.006 C12.5560833,10.006 13.4166667,10.903 13.4166667,12.006 L13.4166667,12.006 Z" id="Shape"></path>
                    <path d="M11.5,0.006 C5.15870833,0.006 0,5.389 0,12.006 C0,18.623 5.15870833,24.006 11.5,24.006 C17.8403333,24.006 23,18.623 23,12.006 C23,5.389 17.8403333,0.006 11.5,0.006 L11.5,0.006 Z M11.5,20.006 C7.27279167,20.006 3.83333333,16.417 3.83333333,12.006 C3.83333333,7.595 7.27279167,4.006 11.5,4.006 C15.7272083,4.006 19.1666667,7.595 19.1666667,12.006 C19.1666667,16.417 15.7272083,20.006 11.5,20.006 L11.5,20.006 Z" id="Shape"></path>
                </g>
            </g>
        </g>
    </g>
</svg>